<svg width="18" height="20" viewBox="0 0 18 20" fill="none" xmlns="http://www.w3.org/2000/svg">
<path d="M16.6309 8.03917L9.13087 1.16415C8.8865 0.940594 8.51068 0.946043 8.27316 1.17646L1.18981 8.05144C1.06855 8.16914 1 8.33104 1 8.49996V18.375C1 18.7202 1.27977 19 1.62501 19H6.83334C7.17854 19 7.45834 18.7202 7.45834 18.375V13.7916H10.375V18.375C10.375 18.7202 10.6548 19 11 19H16.2083C16.5535 19 16.8334 18.7204 16.8334 18.375V8.5C16.8334 8.32478 16.76 8.15772 16.6309 8.03917ZM15.5833 17.75H11.625V13.1667C11.625 12.8215 11.3452 12.5417 11 12.5417H6.83337C6.48817 12.5417 6.20836 12.8215 6.20836 13.1667V17.75H2.25002V8.76437L8.72066 2.48416L15.5834 8.77499L15.5833 17.75Z" fill="#39CEFD" stroke="#39CEFD" stroke-width="0.6" stroke-linecap="round" stroke-linejoin="round"/>
</svg>
