<svg width="22" height="19" viewBox="0 0 22 19" fill="none" xmlns="http://www.w3.org/2000/svg">
<path d="M15.4334 1.99999L15.4931 1.99912C16.4522 1.99912 17.372 2.36197 18.0502 3.00784C18.7283 3.65372 19.1093 4.52971 19.1093 5.44312L19.1084 5.50262V5.49999C19.0918 6.34671 18.8442 7.17475 18.3899 7.90274L18.4028 7.87999C17.3444 9.69999 15.8156 11.24 10.8176 15.552L10.7 15.636L10.5824 15.552C5.6138 11.24 4.0262 9.69999 2.9972 7.87999C2.55042 7.1598 2.30731 6.34161 2.2916 5.50524V5.49999L2.29068 5.44312C2.29073 4.98587 2.38638 4.53321 2.57206 4.11154C2.75774 3.68987 3.02973 3.30763 3.37216 2.98713C3.71459 2.66663 4.1206 2.41428 4.56651 2.24479C5.01243 2.07531 5.48931 1.99209 5.96935 1.99999H5.9666C6.56428 2.00598 7.15373 2.13351 7.69547 2.37405C8.23721 2.6146 8.71873 2.96259 9.1078 3.39474L9.1124 3.39999L10.7 5.16399L12.2876 3.39999C12.6764 2.96675 13.158 2.6177 13.7001 2.37624C14.2422 2.13478 14.8322 2.00649 15.4306 1.99999H15.4334ZM15.4334 0.0119934C14.5363 0.0145003 13.6502 0.200115 12.8348 0.556328C12.0194 0.912542 11.2936 1.43108 10.7064 2.07699L10.7 2.08399C10.1127 1.43636 9.38629 0.916261 8.56988 0.558818C7.75348 0.201376 6.86605 0.0149047 5.96752 0.0119934H5.93628C4.41579 0.0119934 2.95758 0.587242 1.88243 1.61119C0.807289 2.63514 0.203278 4.02391 0.203278 5.47199V5.50174V5.49999C0.218343 6.68143 0.548735 7.8398 1.16337 8.86612L1.14408 8.83199C2.34948 10.988 4.11348 12.668 9.17028 17.008L9.28788 17.092L10.6991 18.352L12.1103 17.12L12.2279 17.036C17.2847 12.668 19.1075 10.988 20.2541 8.83199C20.865 7.81848 21.1892 6.67126 21.1949 5.50262V5.49999V5.47199C21.1949 4.75498 21.0466 4.04498 20.7585 3.38254C20.4704 2.7201 20.0481 2.1182 19.5157 1.61119C18.9834 1.10418 18.3514 0.702002 17.6558 0.427611C16.9602 0.15322 16.2147 0.0119934 15.4619 0.0119934H15.4306H15.4325H15.4334Z" fill="black"/>
</svg>
