<svg width="10" height="9" viewBox="0 0 10 9" fill="none" xmlns="http://www.w3.org/2000/svg">
<path d="M8.64412 0.865558C7.49004 -0.288519 5.61226 -0.288519 4.45818 0.865558L1.14955 4.17419C-0.00452263 5.32824 -0.00452263 7.20605 1.14955 8.36012C1.22748 8.43805 1.3097 8.51106 1.39529 8.57949L2.8174 7.15737C2.71881 7.11041 2.62637 7.04634 2.54485 6.96483C2.1614 6.58138 2.16026 5.95833 2.54121 5.57334L5.85348 2.26088C6.23818 1.87618 6.8641 1.8762 7.2488 2.26088C7.6335 2.64555 7.6335 3.2715 7.2488 3.6562L8.64412 5.05149C9.7982 3.89742 9.7982 2.01963 8.64412 0.865558Z" fill="#16B9FD"/>
</svg>
