<svg width="10" height="10" viewBox="0 0 10 10" fill="none" xmlns="http://www.w3.org/2000/svg">
<path d="M8.45294 0.919648C8.37434 0.841046 8.29227 0.767991 8.2074 0.700089L6.78507 2.12242C6.88367 2.16938 6.9761 2.23345 7.05762 2.31497C7.4423 2.69965 7.44232 3.32559 7.05762 3.71029L3.74897 7.01892C3.36427 7.40359 2.73835 7.40359 2.35365 7.01892C1.96895 6.63424 1.96897 6.0083 2.35365 5.6236L2.54986 5.42739C2.14078 4.69403 2.00653 3.84752 2.14683 3.0398L0.958331 4.2283C-0.195746 5.38238 -0.195746 7.26016 0.958331 8.41424C2.11241 9.56831 3.99019 9.56831 5.14427 8.41424L8.45292 5.10559C9.607 3.95151 9.607 2.0737 8.45294 0.919648Z" fill="#16B9FD"/>
</svg>
